<svg width="13" height="13" viewBox="0 0 13 13" fill="none" xmlns="http://www.w3.org/2000/svg">
<path d="M9.06167 13L12.5624 13C12.6785 13 12.7898 12.9539 12.8718 12.8718C12.9539 12.7898 13 12.6785 13 12.5624L13 9.06167C13.0002 8.97501 12.9746 8.89025 12.9265 8.81814C12.8784 8.74604 12.81 8.68983 12.73 8.65664C12.6499 8.62346 12.5618 8.61479 12.4768 8.63174C12.3918 8.64869 12.3138 8.69049 12.2526 8.75185L10.812 10.1933L0.619632 -1.28652e-07L1.28652e-07 0.619631L10.1933 10.812L8.75185 12.2526C8.69049 12.3138 8.64869 12.3918 8.63174 12.4768C8.61479 12.5618 8.62346 12.6499 8.65664 12.73C8.68983 12.81 8.74604 12.8784 8.81814 12.9265C8.89025 12.9746 8.975 13.0002 9.06167 13Z" fill="red"/>
</svg>
