<svg width="13" height="13" viewBox="0 0 13 13" fill="none" xmlns="http://www.w3.org/2000/svg">
<path d="M13 3.93833L13 0.437593C13 0.321536 12.9539 0.210233 12.8718 0.128169C12.7898 0.0461041 12.6785 6.86663e-07 12.5624 6.8159e-07L9.06167 5.28568e-07C8.97501 -0.000154528 8.89025 0.0254257 8.81814 0.0734984C8.74604 0.121571 8.68983 0.189971 8.65664 0.270027C8.62346 0.350083 8.61479 0.43819 8.63174 0.523178C8.64869 0.608166 8.69049 0.686207 8.75185 0.747409L10.1933 2.18796L4.12511e-07 12.3804L0.619631 13L10.812 2.80672L12.2526 4.24815C12.3138 4.30951 12.3918 4.35131 12.4768 4.36826C12.5618 4.38521 12.6499 4.37654 12.73 4.34336C12.81 4.31017 12.8784 4.25396 12.9265 4.18186C12.9746 4.10975 13.0002 4.025 13 3.93833Z" fill="green"/>
</svg>
